<svg version="1.1" viewBox="0.0 0.0 960.0 540.0" fill="none" stroke="none" stroke-linecap="square" stroke-miterlimit="10" xmlns:xlink="http://www.w3.org/1999/xlink" xmlns="http://www.w3.org/2000/svg"><clipPath id="ga9e82fc706_0_0.0"><path d="m0 0l960.0 0l0 540.0l-960.0 0l0 -540.0z" clip-rule="nonzero"/></clipPath><g clip-path="url(#ga9e82fc706_0_0.0)"><path fill="#000000" fill-opacity="0.0" d="m0 0l960.0 0l0 540.0l-960.0 0z" fill-rule="evenodd"/><path fill="#000000" fill-opacity="0.0" d="m234.90425 270.0l0 0c0 -149.11426 120.88097 -269.99524 269.99524 -269.99524l0 0c71.60718 0 140.2815 28.445843 190.91547 79.07977c50.63391 50.63392 79.07977 119.308266 79.07977 190.91547l0 0c0 149.11423 -120.88098 269.99524 -269.99524 269.99524l0 0c-149.11426 0 -269.99524 -120.88101 -269.99524 -269.99524z" fill-rule="evenodd"/><path stroke="#cccccc" stroke-width="4.0" stroke-linejoin="round" stroke-linecap="butt" d="m234.90425 270.0l0 0c0 -149.11426 120.88097 -269.99524 269.99524 -269.99524l0 0c71.60718 0 140.2815 28.445843 190.91547 79.07977c50.63391 50.63392 79.07977 119.308266 79.07977 190.91547l0 0c0 149.11423 -120.88098 269.99524 -269.99524 269.99524l0 0c-149.11426 0 -269.99524 -120.88101 -269.99524 -269.99524z" fill-rule="evenodd"/><path fill="#000000" fill-opacity="0.0" d="m299.31302 176.08437l356.69632 0l0 208.1916l-356.69632 0z" fill-rule="evenodd"/><path fill="#0097a7" d="m319.6099 336.12436l0 -112.625l21.578125 0l0 112.625l-21.578125 0zm38.710785 -41.9375q0 -10.765625 5.296875 -20.828125q5.3125 -10.0625 15.03125 -15.359375q9.71875 -5.296875 21.6875 -5.296875q18.515625 0 30.34375 12.03125q11.84375 12.015625 11.84375 30.375q0 18.5 -11.953125 30.6875q-11.9375 12.171875 -30.078125 12.171875q-11.203125 0 -21.390625 -5.0625q-10.171875 -5.078125 -15.484375 -14.875q-5.296875 -9.796875 -5.296875 -23.84375zm22.125 1.140625q0 12.140625 5.765625 18.59375q5.765625 6.453125 14.203125 6.453125q8.453125 0 14.171875 -6.453125q5.734375 -6.453125 5.734375 -18.734375q0 -11.984375 -5.734375 -18.4375q-5.71875 -6.453125 -14.171875 -6.453125q-8.4375 0 -14.203125 6.453125q-5.765625 6.453125 -5.765625 18.578125zm76.977295 46.171875l24.65625 3.0q0.609375 4.296875 2.84375 5.90625q3.078125 2.3125 9.671875 2.3125q8.453125 0 12.6875 -2.53125q2.84375 -1.6875 4.296875 -5.453125q1.0 -2.6875 1.0 -9.921875l0 -11.90625q-9.6875 13.21875 -24.4375 13.21875q-16.4375 0 -26.03125 -13.90625q-7.53125 -10.984375 -7.53125 -27.34375q0 -20.515625 9.875 -31.34375q9.875 -10.828125 24.546875 -10.828125q15.125 0 24.953125 13.28125l0 -11.4375l20.203125 0l0 73.203125q0 14.4375 -2.375 21.578125q-2.375 7.15625 -6.6875 11.21875q-4.296875 4.078125 -11.484375 6.375q-7.171875 2.3125 -18.15625 2.3125q-20.75 0 -29.4375 -7.109375q-8.671875 -7.109375 -8.671875 -18.015625q0 -1.078125 0.078125 -2.609375zm19.28125 -47.859375q0 12.984375 5.03125 19.015625q5.03125 6.03125 12.40625 6.03125q7.90625 0 13.359375 -6.1875q5.46875 -6.1875 5.46875 -18.3125q0 -12.6875 -5.234375 -18.828125q-5.21875 -6.140625 -13.203125 -6.140625q-7.765625 0 -12.796875 6.03125q-5.03125 6.03125 -5.03125 18.390625zm73.821045 0.546875q0 -10.765625 5.296875 -20.828125q5.3125 -10.0625 15.03125 -15.359375q9.71875 -5.296875 21.6875 -5.296875q18.515625 0 30.34375 12.03125q11.84375 12.015625 11.84375 30.375q0 18.5 -11.953125 30.6875q-11.9375 12.171875 -30.078125 12.171875q-11.203125 0 -21.390625 -5.0625q-10.171875 -5.078125 -15.484375 -14.875q-5.296875 -9.796875 -5.296875 -23.84375zm22.125 1.140625q0 12.140625 5.765625 18.59375q5.765625 6.453125 14.203125 6.453125q8.453125 0 14.171875 -6.453125q5.734375 -6.453125 5.734375 -18.734375q0 -11.984375 -5.734375 -18.4375q-5.71875 -6.453125 -14.171875 -6.453125q-8.4375 0 -14.203125 6.453125q-5.765625 6.453125 -5.765625 18.578125z" fill-rule="nonzero"/><path fill="#000000" fill-opacity="0.0" d="m351.6137 136.57338l388.59363 0l0 107.76335l-388.59363 0z" fill-rule="evenodd"/><path fill="#bf9000" d="m419.9887 224.93336l-13.0 0l-5.171875 -13.4375l-23.640625 0l-4.890625 13.4375l-12.671875 0l23.046875 -59.171875l12.625 0l23.703125 59.171875zm-22.0 -23.40625l-8.15625 -21.953125l-7.984375 21.953125l16.140625 0zm67.56668 23.40625l-10.546875 0l0 -6.296875q-2.625 3.671875 -6.203125 5.46875q-3.5625 1.796875 -7.1875 1.796875q-7.390625 0 -12.65625 -5.953125q-5.265625 -5.953125 -5.265625 -16.609375q0 -10.890625 5.125 -16.5625q5.125 -5.671875 12.953125 -5.671875q7.1875 0 12.4375 5.96875l0 -21.3125l11.34375 0l0 59.171875zm-30.28125 -22.359375q0 6.859375 1.90625 9.921875q2.734375 4.453125 7.65625 4.453125q3.921875 0 6.65625 -3.328125q2.75 -3.34375 2.75 -9.953125q0 -7.390625 -2.671875 -10.640625q-2.65625 -3.25 -6.8125 -3.25q-4.03125 0 -6.765625 3.21875q-2.71875 3.203125 -2.71875 9.578125zm41.458496 -26.3125l0 -10.5l11.34375 0l0 10.5l-11.34375 0zm0 48.671875l0 -42.859375l11.34375 0l0 42.859375l-11.34375 0zm60.33957 -30.1875l-11.1875 2.015625q-0.5625 -3.34375 -2.5625 -5.03125q-2.0 -1.703125 -5.1875 -1.703125q-4.234375 0 -6.7656555 2.921875q-2.515625 2.921875 -2.515625 9.78125q0 7.640625 2.5625 10.78125q2.5625305 3.140625 6.8750305 3.140625q3.234375 0 5.296875 -1.828125q2.0625 -1.84375 2.90625 -6.3125l11.140625 1.890625q-1.734375 7.671875 -6.671875 11.59375q-4.921875 3.90625 -13.1875 3.90625q-9.4062805 0 -15.0000305 -5.921875q-5.578125 -5.9375 -5.578125 -16.4375q0 -10.609375 5.609375 -16.515625q5.609375 -5.921875 15.1719055 -5.921875q7.828125 0 12.4375 3.375q4.625 3.359375 6.65625 10.265625zm8.594421 -18.484375l0 -10.5l11.34375 0l0 10.5l-11.34375 0zm0 48.671875l0 -42.859375l11.34375 0l0 42.859375l-11.34375 0zm20.3396 -22.03125q0 -5.65625 2.78125 -10.9375q2.78125 -5.296875 7.890625 -8.078125q5.109375 -2.78125 11.40625 -2.78125q9.71875 0 15.9375 6.3125q6.21875 6.3125 6.21875 15.96875q0 9.71875 -6.28125 16.125q-6.28125 6.390625 -15.796875 6.390625q-5.890625 0 -11.25 -2.65625q-5.34375 -2.671875 -8.125 -7.8125q-2.78125 -5.15625 -2.78125 -12.53125zm11.625 0.59375q0 6.390625 3.015625 9.78125q3.03125 3.375 7.46875 3.375q4.4375 0 7.4375 -3.375q3.015625 -3.390625 3.015625 -9.859375q0 -6.296875 -3.015625 -9.6875q-3.0 -3.390625 -7.4375 -3.390625q-4.4375 0 -7.46875 3.390625q-3.015625 3.390625 -3.015625 9.765625zm80.47406 21.4375l-11.34375 0l0 -21.875q0 -6.9375 -0.734375 -8.96875q-0.71875 -2.046875 -2.359375 -3.171875q-1.625 -1.140625 -3.921875 -1.140625q-2.953125 0 -5.296875 1.625q-2.34375 1.609375 -3.21875 4.28125q-0.859375 2.65625 -0.859375 9.84375l0 19.40625l-11.328125 0l0 -42.859375l10.53125 0l0 6.296875q5.609375 -7.265625 14.125 -7.265625q3.75 0 6.859375 1.359375q3.109375 1.34375 4.703125 3.453125q1.59375 2.09375 2.21875 4.765625q0.625 2.65625 0.625 7.609375l0 26.640625zm36.31787 -13.640625l11.296875 1.890625q-2.171875 6.21875 -6.875 9.46875q-4.703125 3.25 -11.765625 3.25q-11.171875 0 -16.546875 -7.3125q-4.234375 -5.84375 -4.234375 -14.765625q0 -10.65625 5.5625 -16.6875q5.578125 -6.03125 14.09375 -6.03125q9.5625 0 15.09375 6.3125q5.53125 6.3125 5.28125 19.359375l-28.40625 0q0.125 5.046875 2.734375 7.859375q2.625 2.796875 6.546875 2.796875q2.65625 0 4.46875 -1.453125q1.828125 -1.453125 2.75 -4.6875zm0.65625 -11.46875q-0.125 -4.921875 -2.546875 -7.484375q-2.421875 -2.5625 -5.890625 -2.5625q-3.71875 0 -6.140625 2.703125q-2.421875 2.703125 -2.375 7.34375l16.953125 0z" fill-rule="nonzero"/><path fill="#000000" fill-opacity="0.0" d="m245.87607 344.25287l-0.041915894 -110.86508l84.039505 0l0.041900635 110.86508z" fill-rule="evenodd"/><path fill="#990000" d="m297.1047 334.03412l-1.0964661 -7.15625q2.0779724 -0.46875 3.155548 -1.859375q1.0776062 -1.390625 1.0766602 -3.90625q-0.0010375977 -2.765625 -1.0172119 -4.171875q-0.7034607 -0.9375 -1.9065857 -0.9375q-0.8125 0 -1.3435669 0.515625q-0.49978638 0.53125 -0.936615 2.375q-1.9029846 8.640625 -3.4802246 10.953125q-2.1706543 3.203125 -6.0612793 3.203125q-3.5 0 -5.8916626 -2.765625q-2.391693 -2.78125 -2.3938904 -8.59375q-0.0020751953 -5.53125 1.8093872 -8.21875q1.7958679 -2.703125 5.326721 -3.71875l1.2369385 6.734375q-1.5623474 0.4375 -2.4056396 1.640625q-0.84329224 1.203125 -0.84243774 3.4375q0.0010375977 2.8125 0.79837036 4.03125q0.5628357 0.8125 1.4378357 0.8125q0.765625 0 1.2966003 -0.703125q0.7183838 -0.96875 2.013092 -6.65625q1.2947388 -5.703125 3.1688843 -7.96875q1.9053955 -2.234375 5.2960205 -2.234375q3.71875 0 6.3917847 3.09375q2.6574402 3.09375 2.659729 9.171875q0.0020751953 5.5 -2.231079 8.71875q-2.2331543 3.21875 -6.060913 4.203125zm-0.90841675 -47.04492l1.1848145 -7.109375q3.9067688 1.359375 5.954773 4.328125q2.0479736 2.953125 2.049652 7.390625q0.0026855469 7.046875 -4.589813 10.421875q-3.686493 2.65625 -9.295868 2.65625q-6.703125 0 -10.501312 -3.5q-3.7981873 -3.5 -3.800232 -8.859375q-0.0022583008 -6.015625 3.9808044 -9.484375q3.9674377 -3.484375 12.170593 -3.34375l0.0067749023 17.875q3.1718445 -0.078125 4.9368286 -1.71875q1.7650146 -1.65625 1.7640991 -4.109375q-6.4086914E-4 -1.6875 -0.90734863 -2.828125q-0.92230225 -1.140625 -2.9537659 -1.71875zm-7.2189026 -0.40625q-3.0937195 0.078125 -4.7025146 1.609375q-1.6087952 1.515625 -1.6079712 3.6875q8.8500977E-4 2.34375 1.6889648 3.859375q1.7037048 1.53125 4.6255493 1.5l-0.0040283203 -10.65625zm15.785278 -30.654297l-4.03125 0q2.1568298 1.46875 3.4077148 3.875q1.2352905 2.40625 1.2362976 5.0625q0.0010375977 2.71875 -1.1856384 4.875q-1.2023315 2.15625 -3.3582153 3.125q-2.1558838 0.96875 -5.968384 0.96875l-17.0625 0l-0.0026855469 -7.140625l12.390625 0q5.6875 0 6.9685974 -0.390625q1.2810974 -0.390625 2.0307007 -1.421875q0.7496033 -1.046875 0.7489929 -2.65625q-6.713867E-4 -1.828125 -1.0012207 -3.265625q-1.0005493 -1.453125 -2.485138 -1.984375q-1.4845581 -0.53125 -7.281433 -0.53125l-11.375 0l-0.0027160645 -7.140625l26.96875 0l0.0025024414 6.625z" fill-rule="nonzero"/><path fill="#000000" fill-opacity="0.0" d="m616.84064 406.36432l0 -176.58772l97.74567 0l0 176.58772z" fill-rule="evenodd"/><path fill="#6aa84f" d="m670.6144 384.3487l-1.671875 9.296875q-5.609375 -1.5625 -8.3125 -5.390625q-2.703125 -3.828125 -2.703125 -11.375q0 -6.859375 1.625 -10.203125q1.625 -3.359375 4.125 -4.71875q2.5 -1.375 9.171875 -1.375l11.953125 0.109375q5.09375 0 7.53125 -0.484375q2.421875 -0.5 5.1875 -1.84375l0 10.125q-1.015625 0.40625 -3.03125 0.984375q-0.90625 0.265625 -1.203125 0.375q2.5625 2.625 3.84375 5.609375q1.265625 2.984375 1.265625 6.375q0 5.984375 -3.234375 9.4375q-3.25 3.4375 -8.21875 3.4375q-3.28125 0 -5.84375 -1.5625q-2.5625 -1.578125 -3.921875 -4.40625q-1.375 -2.828125 -2.40625 -8.140625q-1.34375 -7.1875 -2.515625 -9.953125l-1.015625 0q-2.953125 0 -4.203125 1.46875q-1.265625 1.453125 -1.265625 5.5q0 2.71875 1.078125 4.25q1.078125 1.53125 3.765625 2.484375zm8.3125 -13.703125q0.65625 1.96875 1.578125 6.234375q0.90625 4.265625 1.78125 5.578125q1.421875 2.0 3.609375 2.0q2.140625 0 3.71875 -1.59375q1.5625 -1.609375 1.5625 -4.09375q0 -2.765625 -1.828125 -5.28125q-1.375 -1.859375 -3.390625 -2.4375q-1.3125 -0.40625 -4.984375 -0.40625l-2.046875 0zm33.328125 -45.457764l-19.46875 0q2.578125 2.0 4.09375 5.0q1.515625 2.984375 1.515625 6.453125q0 6.59375 -4.953125 10.859375q-5.796875 5.03125 -15.71875 5.03125q-9.328125 0 -14.5625 -4.71875q-5.234375 -4.734375 -5.234375 -11.71875q0 -3.875 1.640625 -6.6875q1.640625 -2.828125 4.96875 -5.015625l-5.734375 0l0 -9.453125l53.453125 0l0 10.25zm-34.5625 -0.328125q-5.9375 0 -8.828125 2.421875q-2.90625 2.421875 -2.90625 6.078125q0 3.71875 2.953125 6.21875q2.953125 2.484375 9.359375 2.484375q6.375 0 9.203125 -2.40625q2.828125 -2.40625 2.828125 -5.9375q0 -3.53125 -3.171875 -6.1875q-3.171875 -2.671875 -9.4375 -2.671875zm19.828125 -45.46237l-5.796875 0q3.09375 2.125 4.890625 5.578125q1.78125 3.4375 1.78125 7.25q0 3.90625 -1.703125 7.015625q-1.71875 3.09375 -4.8125 4.484375q-3.109375 1.375 -8.578125 1.375l-24.5 0l0 -10.25l17.796875 0q8.15625 0 10.0 -0.5625q1.84375 -0.5625 2.921875 -2.046875q1.078125 -1.5 1.078125 -3.796875q0 -2.625 -1.4375 -4.703125q-1.453125 -2.078125 -3.578125 -2.84375q-2.140625 -0.765625 -10.4375 -0.765625l-16.34375 0l0 -10.25l38.71875 0l0 9.515625zm-43.96875 -20.118652l-9.46875 0l0 -10.249985l9.46875 0l0 10.249985zm43.96875 0l-38.71875 0l0 -10.249985l38.71875 0l0 10.249985z" fill-rule="nonzero"/></g></svg>